<?xml version="1.0" standalone="no"?>
<!DOCTYPE svg PUBLIC "-//W3C//DTD SVG 20010904//EN"
 "http://www.w3.org/TR/2001/REC-SVG-20010904/DTD/svg10.dtd">
<svg version="1.0" xmlns="http://www.w3.org/2000/svg"
 width="200.000000pt" height="200.000000pt" viewBox="0 0 200.000000 200.000000"
 preserveAspectRatio="xMidYMid meet">
<metadata>
Created by potrace 1.11, written by Peter Selinger 2001-2013
</metadata>
<g transform="translate(0.000000,200.000000) scale(0.100000,-0.100000)"
fill="#000000" stroke="none">
<path d="M919 1856 c-136 -146 -182 -311 -130 -468 21 -64 96 -183 140 -222
20 -18 21 -28 21 -190 l0 -171 -30 63 c-70 147 -226 239 -420 245 l-65 2 -1
-50 c-1 -75 21 -178 55 -248 67 -140 213 -229 398 -242 26 -2 51 -4 56 -4 4
-1 7 -19 7 -41 0 -43 15 -55 22 -17 2 12 3 79 3 150 -1 70 -1 127 0 128 0 0
29 3 65 5 275 22 440 194 444 461 l1 78 -73 -3 c-92 -4 -210 -40 -278 -86 -53
-36 -111 -107 -134 -163 -18 -46 -27 -41 -26 15 1 43 7 55 48 102 184 210 177
443 -20 660 l-39 44 -44 -48z m90 -43 c23 -27 57 -81 78 -122 64 -129 57 -256
-22 -388 -29 -49 -79 -113 -89 -113 -1 0 -2 111 -1 248 1 254 -1 282 -16 282
-5 0 -9 -120 -9 -267 l-1 -268 -40 44 c-22 25 -57 79 -77 120 -34 70 -37 83
-37 166 0 83 3 96 36 165 36 74 111 180 128 180 5 0 28 -21 50 -47z m453 -558
c-7 -114 -47 -224 -107 -293 -47 -54 -96 -85 -176 -112 -64 -22 -189 -38 -189
-25 0 4 21 37 47 74 63 87 185 207 267 260 62 41 80 61 55 61 -6 0 -44 -23
-84 -51 -80 -55 -211 -185 -263 -261 -18 -27 -34 -48 -36 -48 -1 0 1 28 5 63
19 145 98 271 203 324 67 34 168 60 231 59 l50 -1 -3 -50z m-800 -196 c173
-60 252 -166 283 -379 4 -25 4 -43 2 -40 -3 3 -25 32 -49 65 -63 85 -171 189
-255 246 -40 27 -77 49 -83 49 -24 0 -6 -19 58 -60 81 -54 221 -192 280 -277
l43 -63 -38 0 c-56 0 -163 25 -216 50 -133 63 -226 224 -227 394 l0 49 70 -7
c38 -3 97 -15 132 -27z"/>
<path d="M1457 399 c-25 -15 -47 -63 -47 -103 0 -19 -6 -37 -12 -40 -10 -5
-10 -7 0 -12 15 -7 17 -124 2 -124 -5 0 -10 -4 -10 -10 0 -13 67 -13 75 0 3 6
-3 10 -14 10 -19 0 -21 6 -21 60 0 57 1 60 25 60 14 0 25 5 25 10 0 6 -11 10
-25 10 -22 0 -25 4 -25 35 0 47 19 84 47 91 13 4 23 10 23 15 0 12 -21 11 -43
-2z"/>
<path d="M340 380 c0 -5 6 -10 13 -10 10 0 13 -30 12 -125 0 -94 -3 -125 -12
-125 -7 0 -13 -4 -13 -10 0 -6 40 -10 99 -10 86 0 99 2 103 18 6 21 -6 60 -14
46 -3 -5 -4 -17 -3 -26 3 -16 -6 -18 -69 -18 l-72 0 0 58 1 57 70 5 c69 6 73
20 5 19 -80 -2 -77 -4 -77 56 0 59 -3 57 67 57 64 1 70 -1 70 -22 0 -11 5 -20
10 -20 6 0 10 14 10 30 l0 30 -100 0 c-60 0 -100 -4 -100 -10z"/>
<path d="M1050 384 c0 -3 6 -11 13 -18 16 -17 15 -238 -2 -244 -6 -2 -11 -8
-11 -13 0 -5 45 -9 100 -9 l100 0 0 37 c0 31 -12 40 -16 12 -1 -5 -2 -13 -3
-19 0 -6 -32 -10 -70 -10 l-69 0 -1 125 c-1 103 1 125 13 125 8 0 18 5 21 10
4 6 -10 10 -34 10 -23 0 -41 -3 -41 -6z"/>
<path d="M1310 310 c0 -5 4 -10 9 -10 6 0 13 5 16 10 3 6 -1 10 -9 10 -9 0
-16 -4 -16 -10z"/>
<path d="M602 240 c-64 -60 -12 -157 72 -136 36 9 25 24 -14 18 -58 -8 -89 47
-54 96 20 29 80 28 78 0 -2 -22 12 -24 20 -3 15 41 -64 60 -102 25z"/>
<path d="M762 240 c-30 -29 -36 -62 -18 -98 30 -59 122 -50 146 14 27 71 -72
136 -128 84z m84 -8 c24 -16 35 -51 23 -74 -16 -30 -28 -38 -61 -38 -28 0 -58
31 -58 60 0 29 30 60 58 60 15 0 32 -4 38 -8z"/>
<path d="M1280 250 c0 -5 7 -10 15 -10 12 0 15 -13 15 -60 0 -47 -3 -60 -15
-60 -8 0 -15 -4 -15 -10 0 -5 18 -10 40 -10 22 0 40 5 40 10 0 6 -7 10 -15 10
-12 0 -15 14 -15 70 0 68 -1 70 -25 70 -14 0 -25 -4 -25 -10z"/>
<path d="M1548 246 c-46 -34 -42 -110 6 -135 27 -15 78 -11 83 6 3 8 -8 10
-34 6 -28 -4 -43 -1 -52 11 -14 16 -5 22 87 57 27 11 28 23 2 49 -23 23 -67
26 -92 6z m81 -20 c10 -12 3 -18 -41 -34 -57 -22 -69 -15 -44 23 19 28 66 34
85 11z"/>
</g>
</svg>
